<svg width="346" height="260" viewBox="0 0 346 260" fill="none" xmlns="http://www.w3.org/2000/svg">
<g clip-path="url(#clip0)">
<path d="M217.4 77.4L234.1 135.3L206.2 125.2L200.7 114.4L205.7 79.3L211.8 79.1L217.4 77.4Z" fill="#999999"/>
<path d="M214.2 83.9C214.2 100 204.7 115.2 189 121.8C168.1 130.5 144.2 120.6 135.5 99.7C118.3 58.4 136.7 54.9 157.6 46.2C172.4 40 188.8 43.3 200.2 53.1" stroke="#999999" stroke-miterlimit="10"/>
<path d="M158.4 86.7L161.3 102.6L166.1 100.8" stroke="#999999" stroke-miterlimit="10" stroke-linecap="square" stroke-linejoin="round"/>
<path d="M136.8 85.7L144.7 82.4" stroke="#999999" stroke-miterlimit="10" stroke-linecap="square" stroke-linejoin="round"/>
<path d="M166.7 73.2L175.8 69.4" stroke="#999999" stroke-miterlimit="10" stroke-linecap="square" stroke-linejoin="round"/>
<path d="M186.2 85.4L187.3 90.2" stroke="#999999" stroke-miterlimit="10"/>
<path d="M186.2 85.4L187.3 90.2" stroke="#999999" stroke-miterlimit="10" stroke-linecap="square" stroke-linejoin="round"/>
<path d="M189.3 84.3L190.5 89.1" stroke="#999999" stroke-miterlimit="10"/>
<path d="M189.3 84.3L190.5 89.1" stroke="#999999" stroke-miterlimit="10" stroke-linecap="square" stroke-linejoin="round"/>
<path d="M145.2 102.5L146.4 107.3" stroke="#999999" stroke-miterlimit="10"/>
<path d="M145.2 102.5L146.4 107.3" stroke="#999999" stroke-miterlimit="10" stroke-linecap="square" stroke-linejoin="round"/>
<path d="M148.3 101.4L149.5 106.2" stroke="#999999" stroke-miterlimit="10"/>
<path d="M148.3 101.4L149.5 106.2" stroke="#999999" stroke-miterlimit="10" stroke-linecap="square" stroke-linejoin="round"/>
<path d="M214.4 51.2C204.5 26.2 176.9 14.7 151.9 24.7C126.9 34.7 114.8 62.9 124.7 87.9L200.2 57.8L200.5 53.2L208.5 50.2L214.4 51.2Z" fill="#999999"/>
<path d="M196.8 59.2C196.8 59.2 198.7 53.8 204.4 51.5C209.8 49.3 218.8 50 222.5 58.8C227.4 70.8 219.4 80.4 206.1 79.4" stroke="#999999" stroke-miterlimit="10" stroke-linecap="square" stroke-linejoin="round"/>
<path d="M205 58.7C208.6 56 213.7 56.8 216.3 60.4C219 64 218.2 69.1 214.6 71.7" stroke="#999999" stroke-miterlimit="10" stroke-linecap="square" stroke-linejoin="round"/>
<path d="M266 158.1L264.5 146.6L207 125" stroke="#999999" stroke-miterlimit="10"/>
<path d="M278.8 259L269.7 160.4" stroke="#999999" stroke-miterlimit="10"/>
<path d="M149.5 259L159.7 166.9L151.5 153.3" stroke="#999999" stroke-miterlimit="10"/>
<path d="M93.5 259L112.3 165.1L123.3 151.2" stroke="#999999" stroke-miterlimit="10"/>
<path d="M172.2 107.2C179.6 107.3 180.7 102 180.7 102" stroke="#999999" stroke-miterlimit="10" stroke-linecap="square" stroke-linejoin="round"/>
<path d="M131.6 133L134.2 123.8L123.3 94.6L124.7 87.8" stroke="#999999" stroke-miterlimit="10"/>
<path d="M151.7 151L154.6 135.8" stroke="#999999" stroke-miterlimit="10"/>
<path d="M226.8 193.1L229.7 222.8" stroke="#999999" stroke-miterlimit="10"/>
<path d="M191.5 58.2L199.2 75.5L202 74.4L200.9 50.3" fill="#999999"/>
<path d="M180.7 36.2C190.696 36.2 198.8 28.0964 198.8 18.1C198.8 8.10365 190.696 0 180.7 0C170.704 0 162.6 8.10365 162.6 18.1C162.6 28.0964 170.704 36.2 180.7 36.2Z" fill="#999999"/>
<path d="M159.7 158.1H269.5" stroke="#999999" stroke-miterlimit="10"/>
<path d="M143.2 90.2L144.7 93.6" stroke="#999999" stroke-width="3" stroke-miterlimit="10" stroke-linecap="square" stroke-linejoin="round"/>
<path d="M174.4 77.4L176 81.3" stroke="#999999" stroke-width="3" stroke-miterlimit="10" stroke-linecap="square" stroke-linejoin="round"/>
<path d="M235.4 225L165 229.8L152.5 235.6" stroke="#999999" stroke-miterlimit="10"/>
<path d="M90.5002 59.9C96.741 59.9 101.8 54.8408 101.8 48.6C101.8 42.3592 96.741 37.3 90.5002 37.3C84.2594 37.3 79.2002 42.3592 79.2002 48.6C79.2002 54.8408 84.2594 59.9 90.5002 59.9Z" stroke="#999999" stroke-miterlimit="10"/>
<path d="M78.1999 224.9C84.993 224.9 90.4999 219.393 90.4999 212.6C90.4999 205.807 84.993 200.3 78.1999 200.3C71.4068 200.3 65.8999 205.807 65.8999 212.6C65.8999 219.393 71.4068 224.9 78.1999 224.9Z" stroke="#999999" stroke-miterlimit="10"/>
<path d="M284.6 134.4C287.141 134.4 289.2 132.341 289.2 129.8C289.2 127.26 287.141 125.2 284.6 125.2C282.059 125.2 280 127.26 280 129.8C280 132.341 282.059 134.4 284.6 134.4Z" stroke="#999999" stroke-miterlimit="10"/>
<path d="M54.4002 150C57.8244 150 60.6002 147.224 60.6002 143.8C60.6002 140.376 57.8244 137.6 54.4002 137.6C50.976 137.6 48.2002 140.376 48.2002 143.8C48.2002 147.224 50.976 150 54.4002 150Z" stroke="#999999" stroke-miterlimit="10"/>
<path d="M57.0842 84.0092L49.8394 73.4569L39.287 80.7017L46.5318 91.254L57.0842 84.0092Z" stroke="#999999" stroke-miterlimit="10"/>
<path d="M89.1 107L71 103.9L77.4 121.1L89.1 107Z" stroke="#999999" stroke-miterlimit="10"/>
<path d="M264.1 108.4L255.1 95.4L248.3 109.7L264.1 108.4Z" stroke="#999999" stroke-miterlimit="10"/>
<path d="M292.8 210.1L298.3 259" stroke="#999999" stroke-miterlimit="10"/>
<path d="M337.2 210.1L331.6 259" stroke="#999999" stroke-miterlimit="10"/>
<path d="M335.8 222.5C341.4 223.2 345.4 228.3 344.7 233.9C344 239.5 338.9 243.5 333.3 242.8" stroke="#999999" stroke-miterlimit="10"/>
<path d="M310.9 185.4C310.9 190 308.9 190 308.9 194.6C308.9 199.2 310.9 199.2 310.9 203.9C310.9 208.5 308.9 208.5 308.9 213.2" stroke="#999999" stroke-miterlimit="10"/>
<path d="M321 183.3C321 187.9 319 187.9 319 192.5C319 197.1 321 197.1 321 201.8C321 206.5 319 206.4 319 211.1" stroke="#999999" stroke-miterlimit="10"/>
<path d="M127 133L156.5 133.9" stroke="#999999" stroke-miterlimit="10"/>
<path d="M127.2 135.3L125.1 150.9" stroke="#999999" stroke-miterlimit="10"/>
<path d="M135.6 139.8L134.2 150.6" stroke="#999999" stroke-miterlimit="10"/>
<path d="M144.4 142.6L143.5 151" stroke="#999999" stroke-miterlimit="10"/>
<path d="M160.8 259H20.1L0 174.3H140.7L160.8 259Z" fill="#999999"/>
<path d="M159.4 253.3H254.1L256.2 259H156.5L159.4 253.3Z" fill="#999999"/>
<path d="M157.1 131.4L158.8 124.8" stroke="#999999" stroke-miterlimit="10"/>
<path d="M168.2 125.1L166.1 131.4L154.6 137.3L157.9 126.8L158.9 122.4L168.2 125.1Z" fill="#999999"/>
<path d="M298 225.5H331.6L327.8 255.5H301.9L298 225.5Z" fill="#999999"/>
</g>
<defs>
<clipPath id="clip0">
<rect width="345.3" height="259.1" fill="white"/>
</clipPath>
</defs>
</svg>
