<svg width="284" height="324" viewBox="0 0 284 324" fill="none" xmlns="http://www.w3.org/2000/svg">
<path d="M44.6998 84.7C50.4436 84.7 55.0998 80.0438 55.0998 74.3C55.0998 68.5563 50.4436 63.9 44.6998 63.9C38.956 63.9 34.2998 68.5563 34.2998 74.3C34.2998 80.0438 38.956 84.7 44.6998 84.7Z" stroke="#999999" stroke-miterlimit="10"/>
<path d="M214 127.8C216.706 127.8 218.9 125.606 218.9 122.9C218.9 120.194 216.706 118 214 118C211.294 118 209.1 120.194 209.1 122.9C209.1 125.606 211.294 127.8 214 127.8Z" stroke="#999999" stroke-miterlimit="10"/>
<path d="M68.9551 122.903L63.5215 114.989L55.6072 120.423L61.0408 128.337L68.9551 122.903Z" stroke="#999999" stroke-miterlimit="10"/>
<path d="M282.452 51.8422L280.647 34.7368L263.542 36.541L265.346 53.6464L282.452 51.8422Z" stroke="#999999" stroke-miterlimit="10"/>
<path d="M283.1 127.1L265 124L271.4 141.2L283.1 127.1Z" stroke="#999999" stroke-miterlimit="10"/>
<path d="M193.2 81.4C193.2 105.8 174.3 125.5 149.9 125.5C125.5 125.5 105.7 105.7 105.7 81.3C105.7 34.8 125.5 21.8 149.9 21.8C174.3 21.8 193.2 33.4 193.2 81.4Z" stroke="#999999" stroke-miterlimit="10"/>
<path d="M192.3 62.7C192.3 62.7 194.7 60.8 200.1 61.4C205.4 61.9 212.2 67 210.9 75.7C209.4 85.4 201.7 89.7 193.4 86.9" stroke="#999999" stroke-miterlimit="10" stroke-linecap="square" stroke-linejoin="round"/>
<path d="M197.4 66.5C201.5 66.1 205.1 69.1 205.5 73.2C205.9 77.3 202.9 80.9 198.8 81.3" stroke="#999999" stroke-miterlimit="10" stroke-linecap="square" stroke-linejoin="round"/>
<path d="M106.3 67.5C106.3 67.5 105.2 65.3 99.6002 65.7C94.3002 66 87.1002 70.3 87.7002 79.1C88.4002 89.7 97.5002 94.3 106.9 90.6" stroke="#999999" stroke-miterlimit="10" stroke-linecap="round" stroke-linejoin="round"/>
<path d="M102 71.1C98 70.4 94.1 73.1 93.4 77.1C92.7 81.1 95.4 85 99.4 85.7" stroke="#999999" stroke-miterlimit="10" stroke-linecap="square" stroke-linejoin="round"/>
<path d="M124.7 64.3H134.7" stroke="#999999" stroke-miterlimit="10"/>
<path d="M162.3 64.3H172.4" stroke="#999999" stroke-miterlimit="10"/>
<path d="M135.6 73.7C135.6 76.6 133.3 78.9 130.4 78.9C127.5 78.9 125.2 76.6 125.2 73.7" stroke="#999999" stroke-miterlimit="10"/>
<path d="M172.3 73.7C172.3 76.6 170 78.9 167.1 78.9C164.2 78.9 161.9 76.6 161.9 73.7" stroke="#999999" stroke-miterlimit="10"/>
<path d="M146.5 73.7L144.4 95.5L151.3 96.7" stroke="#999999" stroke-miterlimit="10"/>
<path d="M146.7 105.5C146.7 105.5 151 105.5 159 105.5" stroke="#999999" stroke-miterlimit="10"/>
<path d="M129.6 87.7L129 93.4" stroke="#999999" stroke-miterlimit="10"/>
<path d="M125.5 87.7L124.9 93.4" stroke="#999999" stroke-miterlimit="10"/>
<path d="M170.2 87.7L170.1 93.4" stroke="#999999" stroke-miterlimit="10"/>
<path d="M166.3 87.1L166.2 92.8" stroke="#999999" stroke-miterlimit="10"/>
<path d="M160.4 238L153.9 258.5L57.6001 313L21.6001 264.5L66.1001 171.4L121.5 143.5" stroke="#999999" stroke-miterlimit="10"/>
<path d="M83.1001 238L127.2 212.3L146.8 211.4" stroke="#999999" stroke-miterlimit="10"/>
<path d="M181.2 141.4L240.1 168.2L283.3 319.4" stroke="#999999" stroke-miterlimit="10"/>
<path d="M214.1 228.2L225.9 319.5" stroke="#999999" stroke-miterlimit="10"/>
<path d="M128.4 131.3L125.6 142.3" stroke="#999999" stroke-miterlimit="10"/>
<path d="M174.8 131.3L178.4 140.9" stroke="#999999" stroke-miterlimit="10"/>
<path d="M127.8 129.3H174.8" stroke="#999999" stroke-miterlimit="10"/>
<path d="M76.0998 302.3L72.7998 323.4" stroke="#999999" stroke-miterlimit="10"/>
<path d="M136.5 134.1L135.5 141.8" stroke="#999999" stroke-miterlimit="10"/>
<path d="M147.5 134.1V141.6" stroke="#999999" stroke-miterlimit="10"/>
<path d="M157.7 134.1L158 141.3" stroke="#999999" stroke-miterlimit="10"/>
<path d="M167.2 133.6L168.6 140.9" stroke="#999999" stroke-miterlimit="10"/>
<path d="M173.5 232C174.5 232.8 175.6 233.7 176.6 234.6C177.6 235.4 178.7 236.3 179.8 237.2L185.7 241.9L191.1 236.7C210.2 217.8 222.8 205.6 222.1 191.1C221.5 179.3 211.8 170.6 199.7 171.2" stroke="#999999" stroke-miterlimit="10"/>
<path d="M199.7 171.1C192.9 171.4 186.7 174.8 182.6 179.9C178.1 175.2 171.5 172.4 164.8 172.8C152.8 173.4 143.9 183 144.5 194.8C144.7 198.4 145.7 201.8 147.4 205.1C148.1 206.4 148.8 207.7 149.7 209" stroke="#999999" stroke-miterlimit="10"/>
<path d="M89.7002 232.1L92.4002 215.4" stroke="#999999" stroke-miterlimit="10"/>
<path d="M182.9 184.1L172.7 197.4L198.2 184.1" stroke="#999999" stroke-miterlimit="10"/>
<path d="M149.4 209.5L156.5 197.4L174.1 181.3" stroke="#999999" stroke-miterlimit="10"/>
<path d="M162.1 233.5L181.2 231L208.4 213.1" stroke="#999999" stroke-miterlimit="10"/>
<path d="M182.2 200.1L209.3 187.3" stroke="#999999" stroke-miterlimit="10"/>
<path d="M185.2 207.4L215.2 192.5" stroke="#999999" stroke-miterlimit="10"/>
<path d="M189.1 215.4L211.2 203.1" stroke="#999999" stroke-miterlimit="10"/>
<path d="M150.7 214.3L158.1 228.2" stroke="#999999" stroke-miterlimit="10"/>
<path d="M98.9002 289.8H222L224.1 305.6H75.7002L76.1002 302.3L98.9002 289.8Z" fill="#999999"/>
<path d="M159.5 240.8H215.7L217.7 256.2H154.6L159.5 240.8Z" fill="#999999"/>
<path d="M16.1 193.1L7.9 189.2L0.5 194.3L1.2 203.3L9.4 207.2L16.8 202.1L16.1 193.1Z" stroke="#999999" stroke-miterlimit="10"/>
<path d="M133.2 122.9L132 129.3" stroke="#999999" stroke-miterlimit="10"/>
<path d="M168.6 121.9L170.2 129.3" stroke="#999999" stroke-miterlimit="10"/>
<path d="M102 38.8C102 38.8 88.2001 48.7 96.4001 51.5C103.8 54 97.3001 60.4 101.3 64.6C108.3 72.1 113 59.1 116.3 62.6C120.5 67.2 128.9 54.7 128.9 54.7C128.9 54.7 135.1 58.6 141.5 56.5C147.4 54.7 148.6 46 148.6 46C148.6 46 156.6 52.9 164.3 52.9C172 52.9 172.2 50.4 172.2 50.4C172.2 50.4 183.9 63 192.3 62.2C200.6 61.4 196.8 50.5 196.8 50.5C196.8 50.5 199.2 47.3 197.7 37.8C196.8 31.6 190.4 32.9 190.4 32.9C190.4 32.9 198.7 28 193.8 21C188.9 14 178.6 14.8 178.6 14.8C178.6 14.8 182.7 5.2 174.1 5.5C165.5 5.8 160.1 11.9 160.1 11.9C160.1 11.9 149.7 -1.8 139.5 0.200003C132.7 1.6 133.4 10.7 133.4 10.7C133.4 10.7 129.2 2.8 118 6.2C110 8.7 110.5 18.1 110.5 18.1C110.5 18.1 100.9 18 97.7001 26.4C94.3001 35.2 102 38.8 102 38.8Z" fill="#999999"/>
<path d="M122.4 14C122.4 14 113.7 19.4 103.5 11.7C105.7 21.1 117.9 25.4 117.9 25.4L122.4 14Z" fill="#999999"/>
<path d="M148.5 9.79999C148.5 9.79999 159.3 11.1 164.6 2.29999C164.5 10.5 156 17.6 156 17.6L148.5 9.79999Z" fill="#999999"/>
<path d="M185.1 23.6C185.1 23.6 192.7 35 200.4 31.2C196.9 34.1 191.8 38 186 33.8C180.2 29.6 185.1 23.6 185.1 23.6Z" fill="#999999"/>
</svg>
