<svg width="412" height="429" viewBox="0 0 412 429" fill="none" xmlns="http://www.w3.org/2000/svg">
<path d="M69 302.5C107.108 302.5 138 271.608 138 233.5C138 195.392 107.108 164.5 69 164.5C30.8924 164.5 0 195.392 0 233.5C0 271.608 30.8924 302.5 69 302.5Z" fill="#5C74FF"/>
<path d="M36.2 207.2H80" stroke="#333333" stroke-miterlimit="10"/>
<path d="M36.2 230.7H99.8" stroke="#333333" stroke-miterlimit="10"/>
<path d="M36.2 255.4H99.8" stroke="#333333" stroke-miterlimit="10"/>
<path d="M47 64.1H397.9" stroke="#999999" stroke-miterlimit="10"/>
<path d="M47 384.6H397.9" stroke="#999999" stroke-miterlimit="10"/>
<path d="M382.7 48.9V399.8" stroke="#999999" stroke-miterlimit="10"/>
<path d="M62.2 48.9V399.8" stroke="#999999" stroke-miterlimit="10"/>
<path d="M308.2 429C365.085 429 411.2 382.885 411.2 326C411.2 269.115 365.085 223 308.2 223C251.315 223 205.2 269.115 205.2 326C205.2 382.885 251.315 429 308.2 429Z" fill="#FF6666"/>
<path d="M241.3 155.3C284.047 155.3 318.7 120.647 318.7 77.9C318.7 35.1532 284.047 0.5 241.3 0.5C198.553 0.5 163.9 35.1532 163.9 77.9C163.9 120.647 198.553 155.3 241.3 155.3Z" fill="white" stroke="#333333" stroke-miterlimit="10"/>
<path d="M266.4 287.1H349.9" stroke="#333333" stroke-miterlimit="10"/>
<path d="M296 321.9H374.9" stroke="#333333" stroke-miterlimit="10"/>
<path d="M241.3 321.9H271.5" stroke="#333333" stroke-miterlimit="10"/>
<path d="M257.5 356.7H360" stroke="#333333" stroke-miterlimit="10"/>
<path d="M204 51.5H278.7" stroke="#333333" stroke-miterlimit="10"/>
<path d="M204 75.2H248.2" stroke="#333333" stroke-miterlimit="10"/>
<path d="M204 98.8H267" stroke="#333333" stroke-miterlimit="10"/>
<path d="M127.3 270.6L231 312.3" stroke="#333333" stroke-miterlimit="10"/>
<path d="M296 223.7L276.1 124.1" stroke="#333333" stroke-miterlimit="10"/>
<path d="M92.8 190.3L179.3 124.1" stroke="#333333" stroke-miterlimit="10"/>
<path d="M311.9 127.5C325.597 127.5 336.7 116.397 336.7 102.7C336.7 89.0034 325.597 77.9 311.9 77.9C298.203 77.9 287.1 89.0034 287.1 102.7C287.1 116.397 298.203 127.5 311.9 127.5Z" fill="#FFC44D"/>
<path d="M130.9 417C152.605 417 170.2 399.405 170.2 377.7C170.2 355.995 152.605 338.4 130.9 338.4C109.195 338.4 91.6 355.995 91.6 377.7C91.6 399.405 109.195 417 130.9 417Z" fill="#333333"/>
</svg>
