<svg width="18" height="18" viewBox="0 0 20 20" fill="none" xmlns="http://www.w3.org/2000/svg">
<path fill-rule="evenodd" clip-rule="evenodd" d="M13.7945 1.66668C12.5881 1.66666 11.8105 1.81038 10.919 2.24672C10.589 2.40827 10.2794 2.60282 9.9918 2.8298C9.71532 2.61555 9.41806 2.42993 9.10167 2.27344C8.19293 1.82398 7.37539 1.66666 6.21228 1.66666C3.09719 1.66666 0.833496 4.24772 0.833496 7.59989C0.833496 10.1315 2.24502 12.5769 4.8742 14.9416C6.25424 16.1828 8.01626 17.4111 9.27816 18.0646L10.0002 18.4384L10.7222 18.0646C11.9841 17.4111 13.7461 16.1828 15.1261 14.9416C17.7553 12.5769 19.1668 10.1315 19.1668 7.59989C19.1668 4.2832 16.8818 1.67946 13.7945 1.66668ZM17.5002 7.59989C17.5002 9.58325 16.322 11.6244 14.0116 13.7024C12.752 14.8353 11.1326 15.9674 10.0002 16.5614C8.86769 15.9674 7.24835 14.8353 5.98873 13.7024C3.67835 11.6244 2.50016 9.58325 2.50016 7.59989C2.50016 5.1231 4.06986 3.33333 6.21228 3.33333C7.13706 3.33333 7.70693 3.44299 8.36277 3.76737C8.75017 3.95897 9.09256 4.21197 9.38894 4.52814L10.0021 5.18225L10.6097 4.52296C10.9128 4.19412 11.2602 3.93536 11.6518 3.74369C12.2884 3.43207 12.8227 3.33333 13.7911 3.33334C15.907 3.34211 17.5002 5.15747 17.5002 7.59989Z" fill="#333333"/>
</svg>
