<svg width="20" height="18" viewBox="0 0 20 18" fill="none" xmlns="http://www.w3.org/2000/svg">
<path fill-rule="evenodd" clip-rule="evenodd" d="M13.7945 0.666678C12.5881 0.666664 11.8105 0.810384 10.919 1.24672C10.589 1.40827 10.2794 1.60282 9.9918 1.8298C9.71532 1.61555 9.41806 1.42993 9.10167 1.27344C8.19293 0.823977 7.37539 0.666664 6.21228 0.666664C3.09719 0.666664 0.833496 3.24772 0.833496 6.59989C0.833496 9.13146 2.24502 11.5769 4.8742 13.9416C6.25424 15.1828 8.01626 16.4111 9.27816 17.0646L10.0002 17.4384L10.7222 17.0646C11.9841 16.4111 13.7461 15.1828 15.1261 13.9416C17.7553 11.5769 19.1668 9.13146 19.1668 6.59989C19.1668 3.2832 16.8818 0.679463 13.7945 0.666678ZM17.5002 6.59989C17.5002 8.58325 16.322 10.6244 14.0116 12.7024C12.752 13.8353 11.1326 14.9674 10.0002 15.5614C8.86769 14.9674 7.24835 13.8353 5.98873 12.7024C3.67835 10.6244 2.50016 8.58325 2.50016 6.59989C2.50016 4.1231 4.06986 2.33333 6.21228 2.33333C7.13706 2.33333 7.70693 2.44299 8.36277 2.76737C8.75017 2.95897 9.09256 3.21197 9.38894 3.52814L10.0021 4.18225L10.6097 3.52296C10.9128 3.19412 11.2602 2.93536 11.6518 2.74369C12.2884 2.43207 12.8227 2.33333 13.7911 2.33334C15.907 2.34211 17.5002 4.15747 17.5002 6.59989Z" fill="#333333"/>
</svg>
