<svg width="370" height="309" viewBox="0 0 370 309" fill="none" xmlns="http://www.w3.org/2000/svg">
<path d="M181.5 105.5C184.372 105.5 186.7 103.172 186.7 100.3C186.7 97.4281 184.372 95.1 181.5 95.1C178.628 95.1 176.3 97.4281 176.3 100.3C176.3 103.172 178.628 105.5 181.5 105.5Z" stroke="#999999" stroke-miterlimit="10"/>
<path d="M194.812 35.2239L187.285 24.2594L176.32 31.7872L183.848 42.7517L194.812 35.2239Z" stroke="#999999" stroke-miterlimit="10"/>
<path d="M79.7996 107.2L69.0996 105.4L72.8996 115.6L79.7996 107.2Z" stroke="#999999" stroke-miterlimit="10"/>
<path d="M94.4998 58.4L31.7998 71.5C17.7998 74.4 3.99978 65.3 0.99978 51.3C-1.90022 37.3 7.09978 23.5 21.0998 20.5L114.6 1.00002C128.6 -1.89998 142.4 7.10003 145.4 21.1C148.3 35.1 139.3 48.9 125.3 51.9L105.5 56" stroke="#999999" stroke-miterlimit="10"/>
<path d="M222 127L231.2 152.5L233 139.4C233 139.4 224.6 133.8 222.4 128C221 124.2 221.3 126.1 221.3 126.1" fill="#999999"/>
<path d="M256.3 143.7C264 141.5 267.9 135.8 267.9 135.8" stroke="#999999" stroke-miterlimit="10"/>
<path d="M234.5 76.5C234.5 76.5 212.9 106.4 212.5 107.9C212.1 109.4 218.7 111.2 218.8 112.1C218.9 113.1 218.1 130.7 232.8 139.6C233.9 140.2 233.6 140.2 234.6 140.7" stroke="#999999" stroke-miterlimit="10"/>
<path d="M230.6 95.7001L227.9 105.1" stroke="#999999" stroke-width="3" stroke-miterlimit="10"/>
<path d="M225.3 116.2L232.6 115.5C232.6 115.5 230.6 124.4 227.6 124.5C224.6 124.5 225.3 116.2 225.3 116.2Z" stroke="#999999" stroke-miterlimit="10"/>
<path d="M236.2 110.5L235.9 115.7" stroke="#999999" stroke-miterlimit="10"/>
<path d="M240.6 111.3L240.3 115.8" stroke="#999999" stroke-miterlimit="10"/>
<path d="M229.5 89.3L236.3 91.6" stroke="#999999" stroke-miterlimit="10"/>
<path d="M262.2 109.6C262.2 109.6 266.2 106.9 270.6 108.1C274.8 109.2 279.8 113.7 278 120.5C275.5 129.8 266.5 131.9 259.1 125.4" stroke="#999999" stroke-miterlimit="10"/>
<path d="M322.3 159.4C297.5 123.2 303.3 88.8001 282.9 71.2001C273.9 63.5001 256.4 56.3001 240.5 62.9001C223 70.1001 222.7 89.0001 222.7 89.0001C222.7 89.0001 225.1 91.6001 248.2 96.4001C253.2 97.4001 260.2 106.8 260.2 106.8L262.6 109.6L262.7 109.4C262.7 109.4 266.3 107 270.7 108.1C274.9 109.2 279.9 113.7 278.1 120.5C275.9 128.8 268.3 131.4 261.5 127.1L261.1 128.2C261.1 128.2 257.9 146.7 261.7 174.7C265.1 199.8 283.8 234.8 283.8 234.8C283.8 234.8 291.3 219.6 304 219.7C307.4 219.7 310.9 220.8 314.3 222.1C306.7 212.1 299.5 194.4 299.5 194.4C303.5 202.2 312.3 217.9 320.2 224.3C327 226.8 333.4 228.1 338.6 221.3C343.3 215.2 347.8 211.1 351.9 208.3C344 202.9 332.1 193.7 324.9 183.8C331.2 192.5 345.8 200.9 355.7 206C363.8 201.8 369.3 202.8 369.3 202.8C369.3 202.8 341.1 186.9 322.3 159.4Z" fill="#999999"/>
<path d="M267.7 112.7C271 112.7 273.7 115.5 273.6 118.8C273.6 122.1 270.8 124.8 267.5 124.7" stroke="#999999" stroke-miterlimit="10"/>
<path d="M239.5 183L257.4 234.8L268.8 308.7" stroke="#999999" stroke-miterlimit="10"/>
<path d="M267.9 171.1L303.8 227L330.9 306.1" stroke="#999999" stroke-miterlimit="10"/>
<path d="M227.3 159.4L167.8 135.1L117.8 71.3" stroke="#999999" stroke-miterlimit="10"/>
<path d="M93.0996 163.3L151.3 185L206.6 196.9" stroke="#999999" stroke-miterlimit="10"/>
<path d="M194.4 249L189.6 232.4L219.9 169L231.2 154.3" stroke="#999999" stroke-miterlimit="10"/>
<path d="M232.5 140.9L231.2 154.3" stroke="#999999" stroke-miterlimit="10"/>
<path d="M237.3 144.1L236.1 153.2" stroke="#999999" stroke-miterlimit="10"/>
<path d="M243 145.2L242.1 153.4" stroke="#999999" stroke-miterlimit="10"/>
<path d="M248.6 145.8L247.9 154.3" stroke="#999999" stroke-miterlimit="10"/>
<path d="M254.2 146.5L253.5 155.1" stroke="#999999" stroke-miterlimit="10"/>
<path d="M259.8 147.1L259 155.6" stroke="#999999" stroke-miterlimit="10"/>
<path d="M261.6 145.2L263.7 153.8" stroke="#999999" stroke-miterlimit="10"/>
<path d="M232.4 140.5L260.3 144.4" stroke="#999999" stroke-miterlimit="10"/>
<path d="M107.3 62.1L100.9 44.9" stroke="#999999" stroke-miterlimit="10"/>
<path d="M91.6997 46.6L96.9997 66" stroke="#999999" stroke-miterlimit="10"/>
<path d="M105.1 108.7L88 76.5L74.5 62.6" stroke="#999999" stroke-miterlimit="10"/>
<path d="M113.5 73.1L111.3 63.8L110.8 54.5" stroke="#999999" stroke-miterlimit="10"/>
<path d="M115.2 72.6L94.3999 161.6" stroke="#999999" stroke-miterlimit="10"/>
<path d="M192.5 257L170.5 306.1" stroke="#999999" stroke-miterlimit="10"/>
<path d="M193 246.2L259.6 253.7L262.7 267.8L192 258.2L193 246.2Z" fill="#999999"/>
<path d="M123.1 17L112.5 31.5" stroke="#999999" stroke-miterlimit="10"/>
<path d="M125.1 29.5L110.5 19" stroke="#999999" stroke-miterlimit="10"/>
<path d="M32.8999 35.1L92.5999 23.1" stroke="#999999" stroke-miterlimit="10"/>
<path d="M23.5 51.8001L63.6 43.7001" stroke="#999999" stroke-miterlimit="10"/>
<path d="M82.2998 40.2L103.8 35.9" stroke="#999999" stroke-miterlimit="10"/>
<path d="M233.2 262.6L224.4 305.5" stroke="#999999" stroke-miterlimit="10" stroke-linecap="square" stroke-linejoin="round"/>
<path d="M205 258.8C205 258.8 202.1 280.4 228.3 286.1" stroke="#999999" stroke-miterlimit="10" stroke-linecap="square" stroke-linejoin="round"/>
<path d="M104.7 194.4L96.2996 190.4L88.5996 195.7L89.3996 204.9L97.7996 208.9L105.4 203.7L104.7 194.4Z" stroke="#999999" stroke-miterlimit="10"/>
<path d="M199.9 237.3L201.2 244.9" stroke="#999999" stroke-miterlimit="10"/>
<path d="M210 239.6L208.3 245.9" stroke="#999999" stroke-miterlimit="10"/>
</svg>
