<svg width="321" height="205" viewBox="0 0 321 205" fill="none" xmlns="http://www.w3.org/2000/svg">
<path d="M128.283 76.5817L91.8049 50.9233L70.6913 80.9403L107.17 106.599L128.283 76.5817Z" fill="white" stroke="#333333" stroke-miterlimit="10"/>
<path d="M74.5 75.4L87 74.5L91.7 86.5L120.2 88.1" stroke="#333333" stroke-miterlimit="10"/>
<path d="M98.2 73.5001C100.851 73.5001 103 71.3511 103 68.7001C103 66.0492 100.851 63.9001 98.2 63.9001C95.549 63.9001 93.4 66.0492 93.4 68.7001C93.4 71.3511 95.549 73.5001 98.2 73.5001Z" fill="white" stroke="#333333" stroke-miterlimit="10"/>
<path d="M248.204 123.114L258.623 129.65L280.198 95.2581L269.779 88.7219L248.204 123.114Z" fill="white" stroke="#333333" stroke-miterlimit="10"/>
<path d="M282.4 80.2L272.3 85.5L282 91.5L282.4 80.2Z" fill="white" stroke="#333333" stroke-miterlimit="10"/>
<path d="M135.8 23.0001L157.1 98.8001C159.8 108.6 154.1 118.8 144.3 121.5C134.5 124.2 124.3 118.5 121.6 108.7L100.3 32.9001C97.6 23.1001 103.3 12.9001 113.1 10.2001C122.8 7.4001 133.1 13.2001 135.8 23.0001Z" fill="#FF6666"/>
<path d="M99.5 140.7C116.621 140.7 130.5 126.821 130.5 109.7C130.5 92.5791 116.621 78.7 99.5 78.7C82.3792 78.7 68.5 92.5791 68.5 109.7C68.5 126.821 82.3792 140.7 99.5 140.7Z" fill="#5C74FF"/>
<path d="M187.9 44.1001L155.6 62.7001V99.9001L187.9 118.5L220.1 99.9001V62.7001L187.9 44.1001Z" fill="#FFC44D"/>
<path d="M267.1 69.5L187.9 99.3L253.3 153L267.1 69.5Z" fill="#5C74FF"/>
<path d="M192.1 111.2H68.5V203.5H192.1V111.2Z" fill="white" stroke="#333333" stroke-miterlimit="10"/>
<path d="M271.1 111.2H192.2V203.5H271.1V111.2Z" fill="white" stroke="#333333" stroke-miterlimit="10"/>
<path d="M204.109 95.6404L162.164 58.8403L125.364 100.785L167.309 137.585L204.109 95.6404Z" fill="white" stroke="#333333" stroke-miterlimit="10"/>
<path d="M128.297 100.576L125.215 97.8718L122.511 100.954L125.593 103.658L128.297 100.576Z" fill="white" stroke="#333333" stroke-miterlimit="10"/>
<path d="M165.068 58.5501L161.986 55.8462L159.282 58.9282L162.364 61.6321L165.068 58.5501Z" fill="white" stroke="#333333" stroke-miterlimit="10"/>
<path d="M207.028 95.3968L203.946 92.6929L201.242 95.7748L204.324 98.4788L207.028 95.3968Z" fill="white" stroke="#333333" stroke-miterlimit="10"/>
<path d="M170.247 137.281L167.165 134.577L164.461 137.659L167.543 140.363L170.247 137.281Z" fill="white" stroke="#333333" stroke-miterlimit="10"/>
<path d="M163.8 78.5002L184.4 96.6002" stroke="#333333" stroke-miterlimit="10"/>
<path d="M174.1 87.4001L154.4 109.9" stroke="#333333" stroke-miterlimit="10"/>
<path d="M170.4 146.2H46.8L68.5 111.2H192.2L170.4 146.2Z" fill="white" stroke="#333333" stroke-miterlimit="10"/>
<path d="M213.9 146.2H292.9L271.1 111.2H192.2L213.9 146.2Z" fill="white" stroke="#333333" stroke-miterlimit="10"/>
<path d="M205.2 51.3999C201.9 52.8999 199.4 55.7999 198.4 59.1999C195.2 57.6999 191.4 57.5999 188 59.0999C182.1 61.6999 179.5 68.2999 182.1 74.0999C185.3 81.1999 194.3 83.9999 208.1 88.4999L212 89.6999L213.7 85.9999C219.6 72.7999 223.6 64.1999 220.4 57.0999C217.8 51.1999 211.2 48.7999 205.2 51.3999Z" fill="#FF6666"/>
<path d="M124.7 54.9001L129.3 72.7001" stroke="#333333" stroke-miterlimit="10"/>
<path d="M119.5 34.6001L121.9 43.9001" stroke="#333333" stroke-miterlimit="10"/>
<path d="M85.1 103.9H112.5" stroke="#333333" stroke-miterlimit="10"/>
<path d="M93.9 96.6001H102.3" stroke="#333333" stroke-miterlimit="10"/>
<path d="M219 111.2L246.9 101.8" stroke="#333333" stroke-miterlimit="10"/>
<path d="M182.609 16.0788L172.456 0.0180664L156.395 10.1717L166.549 26.2324L182.609 16.0788Z" fill="#FFC44D"/>
<path d="M242.1 42.1001L255.4 56.3001L241.3 69.6001" fill="#5C74FF"/>
<path d="M209.5 39.3C213.09 39.3 216 36.3899 216 32.8C216 29.2102 213.09 26.3 209.5 26.3C205.91 26.3 203 29.2102 203 32.8C203 36.3899 205.91 39.3 209.5 39.3Z" fill="white" stroke="#333333" stroke-miterlimit="10"/>
<path d="M76.4 203.6H40V184.5" fill="#5C74FF"/>
<path d="M292.2 203.6H271.3V192.6" fill="#5C74FF"/>
<path d="M28 191.5L21 203.6H34.9L28 191.5Z" fill="#5C74FF"/>
<path d="M210.9 165.9H253.5" stroke="#333333" stroke-miterlimit="10"/>
<path d="M85.5 165.9H146.4" stroke="#333333" stroke-miterlimit="10"/>
<path d="M210.9 180.5H233.2" stroke="#333333" stroke-miterlimit="10"/>
<path d="M243.8 180.5H253.5" stroke="#333333" stroke-miterlimit="10"/>
<path d="M154.1 165.9H171.8" stroke="#333333" stroke-miterlimit="10"/>
<path d="M85.5 181.4H118.2" stroke="#333333" stroke-miterlimit="10"/>
<path d="M127.2 181.4H171.8" stroke="#333333" stroke-miterlimit="10"/>
<path d="M270.6 185.7L273.6 191.8L280.4 192.7L275.5 197.5L276.6 204.2L270.6 201L264.6 204.2L265.8 197.5L260.9 192.7L267.6 191.8L270.6 185.7Z" fill="#FF6666"/>
<path d="M12 203.6H304.3" stroke="#333333" stroke-miterlimit="10"/>
<path d="M311 203.6H320.5" stroke="#333333" stroke-miterlimit="10"/>
<path d="M0 203.6H8.6" stroke="#333333" stroke-miterlimit="10"/>
</svg>
