<svg width="1187" height="417" viewBox="0 0 1187 417" fill="none" xmlns="http://www.w3.org/2000/svg">
<g clip-path="url(#clip0)">
<path d="M299.3 311.4L73.4 93.4" stroke="#999999" stroke-miterlimit="10"/>
<path d="M0.0999985 386L304.5 298.7" stroke="#999999" stroke-miterlimit="10"/>
<path d="M85.8 88.7L9.6 394.6" stroke="#999999" stroke-miterlimit="10"/>
<path d="M531.3 161.8H749.5" stroke="#999999" stroke-miterlimit="10"/>
<path d="M531.3 361.2H749.5" stroke="#999999" stroke-miterlimit="10"/>
<path d="M740.1 152.4V370.6" stroke="#999999" stroke-miterlimit="10"/>
<path d="M540.7 152.4V370.6" stroke="#999999" stroke-miterlimit="10"/>
<path d="M1044.3 377.5C1114.99 377.5 1172.3 320.192 1172.3 249.5C1172.3 178.808 1114.99 121.5 1044.3 121.5C973.608 121.5 916.3 178.808 916.3 249.5C916.3 320.192 973.608 377.5 1044.3 377.5Z" stroke="#999999" stroke-miterlimit="10"/>
<path d="M429.3 260.5H349V263.7H429.3V260.5Z" fill="#F2F2F2"/>
<path d="M429.3 275.8H349V279H429.3V275.8Z" fill="#F2F2F2"/>
<path d="M403.7 283.5H351.2V286.7H403.7V283.5Z" fill="#F2F2F2"/>
<path d="M418 291.1H351.2V294.3H418V291.1Z" fill="#F2F2F2"/>
<path d="M412 268.2H351.2V271.4H412V268.2Z" fill="#F2F2F2"/>
<path d="M825.9 56H745.6V65.5H825.9V56Z" fill="#F2F2F2"/>
<path d="M836 77.5H755.7V80.7H836V77.5Z" fill="#F2F2F2"/>
<path d="M800.4 85.2H747.9V88.4H800.4V85.2Z" fill="#F2F2F2"/>
<path d="M808.7 69.9H747.9V73.1H808.7V69.9Z" fill="#F2F2F2"/>
<path d="M341.5 260.6H320.8V294.2H341.5V260.6Z" fill="#F2F2F2"/>
<path d="M686.9 234.9H814.2C814.2 234.9 824.9 217.5 810.6 215.7C796.3 213.9 782.7 222.3 782.7 222.3C782.7 222.3 780.5 205.2 761.8 204.7C743.1 204.2 725 227.3 725 227.3C725 227.3 726.2 218.9 718 218.2C701.8 216.8 686.9 234.9 686.9 234.9Z" fill="#F2F2F2"/>
<path d="M678.9 234.9H656C656 234.9 665.7 226.8 674.1 226.6C682.5 226.4 678.9 234.9 678.9 234.9Z" fill="#F2F2F2"/>
<path d="M362.5 105H239.7C239.7 105 229.4 91.6 243.1 90.2C256.8 88.8 270 95.3 270 95.3C270 95.3 272.1 82.1 290.2 81.7C308.3 81.3 325.7 99.1 325.7 99.1C325.7 99.1 324.6 92.6 332.4 92.1C348.1 91.1 362.5 105 362.5 105Z" fill="#F2F2F2"/>
<path d="M370.1 105H392.2C392.2 105 382.9 98.8 374.7 98.6C366.5 98.4 370.1 105 370.1 105Z" fill="#F2F2F2"/>
<path d="M1002.2 277.4L976.5 285.2L927.7 263.4L894.3 253.9L879.4 267.9L937.6 300.2L987 332.3L1072.6 369.4L1093.4 380.7L1106.5 376.1L1107 350.7L1107.5 325.2L1002.2 277.4Z" fill="white"/>
<path d="M1112.2 109V421.1" stroke="#999999" stroke-miterlimit="10"/>
<path d="M810.1 382.3L823.2 360.5L873.2 370.6L859.9 391.5L810.1 382.3Z" fill="white" stroke="#333333" stroke-miterlimit="10"/>
<path d="M483 307.1L474.7 283.6L484.2 276.3L487 275.1L489.8 273.9L492.9 272.7L500.2 269.7L499.2 244.6L508.3 242.6L512 284.1L511.4 298.7L483 307.1Z" fill="white" stroke="#333333" stroke-miterlimit="10"/>
<path d="M527.4 353.5L512.9 296.9L476.3 304L503.9 408.5" fill="#FF6666"/>
<path d="M608.2 276.8L637 292.6L639.3 296.3L638.4 301.3L639.3 302L635.4 325.8L609.5 289.9L608.2 276.8Z" fill="#FFC44D"/>
<path d="M253.2 24.7L260 23.2L280.2 47.2L271.5 50.3L253.2 24.7Z" fill="#FF6666"/>
<path d="M289.7 13.3L295.9 15.1L297 38.1L288.5 36.7L289.7 13.3Z" fill="#475AEA"/>
<path d="M309.9 27.1L314.1 32L307.7 46.3L300 44.3L309.9 27.1Z" fill="#FFC44D"/>
<path d="M579.5 268.4L577.2 286C577.2 286 560.7 300.2 587 296C607.3 292.8 611.6 286 611.6 286L606 281.2L602.8 266.1" fill="white"/>
<path d="M579.5 268.4L577.2 286C577.2 286 560.7 300.2 587 296C607.3 292.8 611.6 286 611.6 286L606 281.2L602.8 266.1" stroke="#333333" stroke-miterlimit="10"/>
<path d="M1052.3 214.8C1052.3 214.8 1051.6 230.7 1044.2 235.1C1056.3 233.6 1063.8 236.3 1063.8 236.3L1065.5 228.3C1065.5 228.3 1060.5 226.1 1056.7 222.1C1052.9 218.1 1052.3 214.8 1052.3 214.8Z" fill="#FFC44D"/>
<path d="M1065.4 228L1061.3 243.1C1061.3 243.1 1048.4 257.7 1062.5 258.1C1076.6 258.6 1088.2 250.7 1088.2 250.7L1085.2 226.5L1065.4 228Z" fill="white" stroke="#333333" stroke-miterlimit="10"/>
<path d="M1080.6 229.5L1063.7 234.3L1065.6 228.3C1065.6 228.3 1069.7 229.5 1072.3 229.4C1075 229.3 1078.5 229 1078.5 229L1082.8 228.3L1080.6 229.5Z" fill="#333333"/>
<path d="M198.8 131.9L242.5 128.8L249.8 139.1L202.7 150.6L198.8 131.9Z" fill="white" stroke="#333333" stroke-miterlimit="10"/>
<path d="M222.6 174.7L261.3 154.3L265.1 140.6L228.2 148.3L222.6 174.7Z" fill="white" stroke="#333333" stroke-miterlimit="10"/>
<path d="M158.3 108.5L188.3 130.7L214 123.1L211.2 184.5L195 165.2L164.1 133.9L158.3 108.5Z" fill="#4D6FFF"/>
<path d="M164.5 85.3C164.5 85.3 173.8 94.7 176.6 99C179.4 103.3 171.2 106 174.9 110.5C162.3 110.5 158.4 108.5 158.4 108.5L154.9 88.5L164.5 85.3Z" fill="#FF6666"/>
<path d="M807.2 379.6L794.5 390.4L752.5 407.1L748 422H866.8L868.1 387.6L807.2 379.6Z" fill="#5C74FF"/>
<path d="M750 414.8H867.1L868.1 422H747.8L750 414.8Z" fill="#FED988"/>
<path d="M964 392.8L893.2 338.3L880.2 380.8L865.8 382.3L813.6 372.7L798 358L875.7 268.5C875.7 268.5 903.1 278.3 943 303.8C962.1 316 978.2 327.7 987 332.4C996.5 337.4 997.9 334.8 997.9 334.8L1070 385.5L1061 422L970.2 457.7L964.7 545.1L949.2 557L894.5 565L883 556L912.2 433.6L964 392.8Z" fill="#FF6666"/>
<path d="M964 392.8L988.4 371.8" stroke="#333333" stroke-miterlimit="10"/>
<path d="M1055.3 184C1055.3 184 1046 209.3 1046 210.4C1046 211.5 1051 211.5 1051.3 212.1C1051.6 212.7 1054.6 225 1066.7 228.3C1085.6 233.5 1090.5 219.1 1090.5 219.1" fill="white"/>
<path d="M1055.3 184C1055.3 184 1046 209.3 1046 210.4C1046 211.5 1051 211.5 1051.3 212.1C1051.6 212.7 1054.6 225 1066.7 228.3C1085.6 233.5 1090.5 219.1 1090.5 219.1" stroke="#333333" stroke-miterlimit="10"/>
<path d="M1076.9 196.9L1048.5 191C1048.5 191 1049.8 179 1061.8 171.2C1071.1 165.1 1081.3 165.3 1088.7 167.3C1105.6 172.1 1111.8 187.3 1111.7 206.7C1111.6 228.5 1114.5 235.1 1114.5 235.1C1114.5 235.1 1105.6 241.1 1101.2 241.1C1093.4 241.1 1092.6 237.5 1086.5 239.4C1078.1 242 1074 238.8 1074 238.8C1074 238.8 1080.4 229.7 1082.5 227.1C1087.6 220.5 1088.1 213.7 1088.1 213.7L1085.1 204.8L1076.9 196.9Z" fill="#FFC44D"/>
<path d="M1081.3 199.3C1081.3 199.3 1083.6 196.8 1087.2 196.8C1090.6 196.8 1095.4 199.2 1095.3 204.8C1095.3 212.4 1088.8 215.8 1081.8 212.3" fill="white"/>
<path d="M1081.3 199.3C1081.3 199.3 1083.6 196.8 1087.2 196.8C1090.6 196.8 1095.4 199.2 1095.3 204.8C1095.3 212.4 1088.8 215.8 1081.8 212.3" stroke="#333333" stroke-miterlimit="10" stroke-linecap="square" stroke-linejoin="round"/>
<path d="M1103.8 170.6C1109.71 170.6 1114.5 165.809 1114.5 159.9C1114.5 153.991 1109.71 149.2 1103.8 149.2C1097.89 149.2 1093.1 153.991 1093.1 159.9C1093.1 165.809 1097.89 170.6 1103.8 170.6Z" fill="#FFC44D"/>
<path d="M1056.3 198.2V205.3" stroke="#333333" stroke-width="3" stroke-miterlimit="10"/>
<path d="M1056.6 213.7L1061.6 211.8C1061.6 211.8 1062 218.4 1059.8 219.1C1057.8 219.7 1056.6 213.7 1056.6 213.7Z" fill="white" stroke="#333333" stroke-miterlimit="10"/>
<path d="M1075 192.4L1081.5 194.1L1082 209.5L1079.4 207.4L1075 192.4Z" fill="#FFC44D"/>
<path d="M1089.6 248.3C1089.6 248.3 1099.8 268.8 1105.5 283.3C1111.6 299 1116.8 321.2 1116.8 321.2C1116.8 321.2 1107.7 326.2 1096.6 328.2C1077.4 331.7 1069.4 326.2 1069.4 326.2L1070 332.7L1013.9 304.8C1013.9 304.8 1007.5 296.3 1004.8 290.5C1000.8 282 1000.8 275.2 1000.8 275.2C1000.8 275.2 1016.5 267.5 1028.1 261.8C1038.3 256.8 1061.9 242.4 1061.9 242.4C1061.9 242.4 1049.1 259 1063.4 257.3C1080.5 255.2 1089.6 248.3 1089.6 248.3Z" fill="#5C74FF"/>
<path d="M1070 332.7L1065.4 285.2" stroke="#333333" stroke-miterlimit="10"/>
<path d="M1107.5 325.2L1106.5 376.1L1093.4 380.7L996.6 329.2" stroke="#333333" stroke-miterlimit="10"/>
<path d="M1078.5 337L1069.4 332.4" stroke="#333333" stroke-miterlimit="10"/>
<path d="M1001 277.9L976.5 285.2L927.7 263.4" stroke="#333333" stroke-miterlimit="10"/>
<path d="M994.9 324.7L988.5 333.5L937.1 299.8" stroke="#333333" stroke-miterlimit="10"/>
<path d="M1012.1 304.4L1018.7 277.4L1055.3 292.1L1040.6 318.6" fill="#FFC44D"/>
<path d="M1033.3 283.3L1042.6 268.2L1051.8 271.4L1035.1 273.5L1040.4 262.9L1046 264L1051.8 256.7" stroke="white" stroke-miterlimit="10"/>
<path d="M978.2 335.8C978.2 335.8 1052.2 389.8 1070 392.8C1072.1 385.3 1072.6 369.5 1072.6 369.5L994.7 328.3L978.2 335.8Z" fill="#5C74FF"/>
<path d="M1005.8 307L1023.6 317.6" stroke="#333333" stroke-miterlimit="10"/>
<path d="M999.6 312L1019.4 323.7" stroke="#333333" stroke-miterlimit="10"/>
<path d="M996.6 320L1013 329" stroke="#333333" stroke-miterlimit="10"/>
<path d="M927.7 263.4L894.3 253.9L880.4 266.3" stroke="#333333" stroke-miterlimit="10"/>
<path d="M891.3 270.9L900.9 261.8" stroke="#333333" stroke-miterlimit="10"/>
<path d="M936 303.7L875.7 268.2L878.8 179.5H882.9L881.3 265.8L937.6 300.2L936 303.7Z" fill="#333333"/>
<path d="M751.2 414.8H865.3" stroke="#333333" stroke-miterlimit="10"/>
<path d="M768.1 395.6L773.4 404.4" stroke="#333333" stroke-miterlimit="10"/>
<path d="M774.2 393.5L779.2 401.6" stroke="#333333" stroke-miterlimit="10"/>
<path d="M780 391.5L785 399.7" stroke="#333333" stroke-miterlimit="10"/>
<path d="M785.9 389.4L790.8 397.5" stroke="#333333" stroke-miterlimit="10"/>
<path d="M791.5 387.5L796.5 395.6" stroke="#333333" stroke-miterlimit="10"/>
<path d="M924.6 277.7L905.6 271.9L898.6 278.9" stroke="#333333" stroke-miterlimit="10"/>
<path d="M611.6 284.7L642.2 313.3L662.1 422.2L481.4 420.4L543 309.8L577.1 286C577.1 286 566 296.6 578.5 296.2C589.9 295.9 611.6 284.7 611.6 284.7Z" fill="#FF6666"/>
<path d="M546.2 343.7L527.4 403" stroke="#333333" stroke-miterlimit="10"/>
<path d="M619.8 415.4H494.3V422.3H619.8V415.4Z" fill="#333333"/>
<path d="M558.4 415.4H508.1L517.8 397.2L553.7 391.5" fill="white"/>
<path d="M539.2 402.2L523.5 403.4L517.1 415.4" fill="white"/>
<path d="M539.2 402.2L523.5 403.4L517.1 415.4" stroke="#333333" stroke-miterlimit="10"/>
<path d="M544.4 408.5L530.5 409.3L527.4 415.4" fill="white"/>
<path d="M544.4 408.5L530.5 409.3L527.4 415.4" stroke="#333333" stroke-miterlimit="10"/>
<path d="M612.4 349.3L611.5 391.2L552.3 391.5L517.8 397.2L508.1 415.4" stroke="#333333" stroke-miterlimit="10"/>
<path d="M510.4 422.4H376L346.7 322.9H481.1L510.4 422.4Z" fill="#333333"/>
<path d="M586.7 274.3C602.882 274.3 616 261.182 616 245C616 228.818 602.882 215.7 586.7 215.7C570.518 215.7 557.4 228.818 557.4 245C557.4 261.182 570.518 274.3 586.7 274.3Z" fill="white" stroke="#333333" stroke-miterlimit="10"/>
<path d="M602.1 204.1C602.1 204.1 590.9 194.7 575.4 196.3C568.4 197 556.9 201 551.3 211.6C544.7 224 550.4 235.9 558.5 237.4C564.2 238.4 569.2 233.5 577.1 229.5C595.1 220.3 601 227.5 601 227.5L607.1 243.5C607.1 243.5 618.4 243.5 622.2 233.7C624 229.2 626.4 210.6 617.8 213.3C612.6 215 615.6 200.3 602.1 204.1Z" fill="#5C74FF"/>
<path d="M609.1 234.9C609.1 234.9 611.9 231.9 616.3 231.9C620.5 231.9 626.3 234.9 626.3 241.7C626.3 251 618.3 255.2 609.8 250.8" fill="white"/>
<path d="M609.1 234.9C609.1 234.9 611.9 231.9 616.3 231.9C620.5 231.9 626.3 234.9 626.3 241.7C626.3 251 618.3 255.2 609.8 250.8" stroke="#333333" stroke-miterlimit="10" stroke-linecap="square" stroke-linejoin="round"/>
<path d="M566.2 239.5L566.1 245.4" stroke="#333333" stroke-width="3" stroke-miterlimit="10" stroke-linecap="square" stroke-linejoin="round"/>
<path d="M590.4 239.5L590.3 245.4" stroke="#333333" stroke-width="3" stroke-miterlimit="10" stroke-linecap="square" stroke-linejoin="round"/>
<path d="M575.6 237.3L573.6 254L578.6 254.9" fill="white"/>
<path d="M575.6 237.3L573.6 254L578.6 254.9" stroke="#333333" stroke-miterlimit="10" stroke-linecap="square" stroke-linejoin="round"/>
<path d="M562.4 236H569.7" stroke="#333333" stroke-miterlimit="10" stroke-linecap="square" stroke-linejoin="round"/>
<path d="M587.2 236H594.3" stroke="#333333" stroke-miterlimit="10" stroke-linecap="square" stroke-linejoin="round"/>
<path d="M580.5 260.5C582.9 260.9 588.8 258.8 590.2 252.7" stroke="#333333" stroke-miterlimit="10" stroke-linecap="square"/>
<path d="M235.9 325.5L179.7 219.4L174.5 225.1L175.4 219.2L89.1 230.1L76 349.3L45 423.4L180.9 422.9H265.6L235.9 325.5Z" fill="#FFC44D"/>
<path d="M135.7 108.5L161.9 110.1L158.1 96L133.5 95.2L135.7 108.5Z" fill="#5C74FF"/>
<path d="M118.1 101.8L81.7 241L188.1 227.3L159.2 106.1L118.1 101.8Z" fill="#5C74FF"/>
<path d="M182.4 67.3C179.4 84.6 163.1 95.3 146.1 90.4C129.2 85.5 116.7 73.7 119.7 56.4C122.7 39.1 139.2 27.5 156.5 30.5C173.8 33.5 185.4 50 182.4 67.3Z" fill="white" stroke="#333333" stroke-miterlimit="10"/>
<path d="M182.3 55.8L184.9 77.6L177.7 78.8" fill="white"/>
<path d="M182.3 55.8L184.9 77.6L177.7 78.8" stroke="#333333" stroke-miterlimit="10"/>
<path d="M169.4 46.5C175.2 52.6 183.8 57.1 186.9 53.3C189.8 49.7 193 31.3 182.8 30.2C171.5 29 177.4 20.3 169 18.2C162.6 16.6 159.6 21.9 155.6 18.1C153.1 15.7 151.9 13.5 146.2 14.4C141.1 15.2 138.6 22.1 134.5 21.5C126 20.3 125.7 28.2 126.6 32C127.1 34 114.4 37 117.8 44.9C121 52.3 105.6 59 110.6 66C113.9 70.6 97.5 76.3 103.4 87.5C109.3 98.6 98.8 111 98.8 111L154 116.6C154 116.6 142.9 96.6 148.4 93.6C156.2 89.3 140.6 83.4 141.8 72.7C142.3 67.7 142.9 50.3 150.2 50.1C151.7 50.1 151.6 56.6 151.6 56.6L154.1 59.6C153.9 59.6 165.3 42.3 169.4 46.5Z" fill="#FF6666"/>
<path d="M152.5 51.9C152.5 51.9 150.4 48.5 146.1 47.8C142.1 47.1 136.1 49 135 55.5C133.5 64.4 140.4 69.7 149.3 67" fill="white"/>
<path d="M152.5 51.9C152.5 51.9 150.4 48.5 146.1 47.8C142.1 47.1 136.1 49 135 55.5C133.5 64.4 140.4 69.7 149.3 67" stroke="#333333" stroke-miterlimit="10" stroke-linecap="square" stroke-linejoin="round"/>
<path d="M143.6 18C148.571 18 152.6 13.9706 152.6 9C152.6 4.02944 148.571 0 143.6 0C138.629 0 134.6 4.02944 134.6 9C134.6 13.9706 138.629 18 143.6 18Z" fill="#FF6666"/>
<path d="M171.4 54.8L178.1 56.7" stroke="#333333" stroke-miterlimit="10"/>
<path d="M173.5 59L171.4 66.7" stroke="#333333" stroke-width="3" stroke-miterlimit="10"/>
<path d="M158.8 106L194.8 157.2L234.9 145.5L233 232.4L158.3 214.1L148.1 156.6L158.8 106Z" fill="#5C74FF"/>
<path d="M165 73.8C165 73.8 165.9 78.7 170.2 78.8L165 73.8Z" fill="white"/>
<path d="M165 73.8C165 73.8 165.9 78.7 170.2 78.8" stroke="#333333" stroke-miterlimit="10"/>
<path d="M165.6 242.6L210.9 334.5L213.5 415.4" stroke="#333333" stroke-miterlimit="10"/>
<path d="M144.9 153.3L147.1 207.7L186.6 221" stroke="#333333" stroke-miterlimit="10"/>
<path d="M201.4 154.3L273.5 139.3L300.5 50.1L296.3 48.6L268.7 135L201 150.2L201.4 154.3Z" fill="#333333"/>
<path d="M222.6 138.6L234.4 137L237.8 141.5" stroke="#333333" stroke-miterlimit="10"/>
<path d="M237.8 132.7L242.9 139.7" stroke="#333333" stroke-miterlimit="10"/>
<path d="M236.1 154.9L249 150.7L251.4 143.6" stroke="#333333" stroke-miterlimit="10"/>
<path d="M163.4 65.7L161.6 68.7" stroke="#FF6666" stroke-miterlimit="10"/>
<path d="M165.6 66.6L163.8 69.7" stroke="#FF6666" stroke-miterlimit="10"/>
<path d="M594.8 249.4L594.3 252.9" stroke="#FF6666" stroke-miterlimit="10"/>
<path d="M597.2 249.5L596.7 253" stroke="#FF6666" stroke-miterlimit="10"/>
<path d="M563 249.5L562.4 253" stroke="#FF6666" stroke-miterlimit="10"/>
<path d="M565.4 249.5L564.8 253" stroke="#FF6666" stroke-miterlimit="10"/>
<path d="M1063.2 207.6L1064 211.3" stroke="#FF6666" stroke-miterlimit="10"/>
<path d="M1066.4 207.3L1067.1 210.5" stroke="#FF6666" stroke-miterlimit="10"/>
<path d="M1054.3 194L1059.6 194.3" stroke="#333333" stroke-miterlimit="10"/>
<path d="M564 253.7C570.13 253.7 575.1 248.73 575.1 242.6C575.1 236.47 570.13 231.5 564 231.5C557.87 231.5 552.9 236.47 552.9 242.6C552.9 248.73 557.87 253.7 564 253.7Z" stroke="#333333" stroke-miterlimit="10"/>
<path d="M587.2 253.3C593.33 253.3 598.3 248.33 598.3 242.2C598.3 236.07 593.33 231.1 587.2 231.1C581.07 231.1 576.1 236.07 576.1 242.2C576.1 248.33 581.07 253.3 587.2 253.3Z" stroke="#333333" stroke-miterlimit="10"/>
<path d="M597.1 237.3L611.6 233.1" stroke="#333333" stroke-miterlimit="10"/>
<path d="M1016.8 285.2L1047 288.8" stroke="#475AEA" stroke-miterlimit="10"/>
<path d="M1014.7 292.1L1052.8 295.8" stroke="#475AEA" stroke-miterlimit="10"/>
<path d="M1013.7 299L1051.8 302.7" stroke="#475AEA" stroke-miterlimit="10"/>
<path d="M1013 305.1L1051.1 308.8" stroke="#475AEA" stroke-miterlimit="10"/>
<path d="M1027.5 312.2L1051.8 314.5" stroke="#475AEA" stroke-miterlimit="10"/>
<path d="M603.9 271.4L577.9 280.2L578.8 273.2C578.8 273.2 584.8 275.3 589.6 274.2L597.1 272.5L603.1 269.2L603.9 271.4Z" fill="#333333"/>
<path d="M974.5 62.8C969.8 63.3 965.5 65.9 962.9 69.7C959.6 66.6 954.9 64.9 950.1 65.4C941.7 66.3 935.9 73.4 936.8 81.6C937.9 91.7 947.9 98.8 963.2 109.8L967.5 112.8L971.1 108.9C983.7 94.9 992 85.9 990.9 75.8C990 67.6 982.8 61.9 974.5 62.8Z" fill="#FF6666"/>
<path d="M1006.3 96.7C1004.5 96.5 1002.7 97.2 1001.4 98.4C1000.4 97 998.8 96 996.9 95.8C993.7 95.5 990.9 97.7 990.6 100.8C990.2 104.7 993.4 108.1 998.3 113.5L999.7 115L1001.3 113.8C1007.1 109.5 1011 106.8 1011.4 102.9C1011.7 99.8 1009.5 97.1 1006.3 96.7Z" fill="#5C74FF"/>
<path d="M967.1 107C969.5 115.2 958.8 129.4 967.4 135.8C975.8 142.1 966.1 156.2 966.9 170.4" stroke="#333333" stroke-miterlimit="10"/>
<path d="M1000 110.4C998.1 120.1 1002.6 122 1002.3 127.9C1002 133.6 998.9 136.1 998.9 151.9" stroke="#333333" stroke-miterlimit="10"/>
<path d="M134.9 249.5L151.7 336.9L140.2 414.1" stroke="#333333" stroke-miterlimit="10"/>
<path d="M109.2 253.9V348.3L81.8 413.1" stroke="#333333" stroke-miterlimit="10"/>
<path d="M260.9 29.2L278.2 51.8" stroke="#333333" stroke-miterlimit="10"/>
<path d="M292.8 43.8V20.6" stroke="#333333" stroke-miterlimit="10"/>
<path d="M302.9 45.7L309.7 33.8" stroke="#333333" stroke-miterlimit="10"/>
<path d="M675.6 266.5C675.6 266.5 668.5 272.4 677.9 274.3C695.4 277.7 718.9 263.7 718.9 263.7" stroke="white" stroke-miterlimit="10"/>
<path d="M582 290.9L608.2 276.8L613.5 285.2L581.5 300.6L582 290.9Z" fill="#FFC44D"/>
<path d="M577.2 279.3L574.9 280.3L567.8 292.5L581.5 300.6L582 290.9L577.2 279.3Z" fill="#FFC44D"/>
<path d="M576.3 295.1L573.2 339.2" stroke="white" stroke-miterlimit="10"/>
<path d="M587.1 295.1L586.4 345.5" stroke="white" stroke-miterlimit="10"/>
<path d="M572.4 335.8H575.8V346.1H570.9L572.4 335.8Z" fill="#FFC44D"/>
<path d="M584.6 339.2H588.6V350.2L584 349.2L584.6 339.2Z" fill="#FFC44D"/>
<path d="M588.4 292.9L603.9 283.6" stroke="white" stroke-miterlimit="10" stroke-linecap="square" stroke-linejoin="round"/>
<path d="M577.9 290.8L573.6 286.7" stroke="white" stroke-miterlimit="10" stroke-linecap="square" stroke-linejoin="round"/>
<path d="M622.2 289.4L639.3 302" stroke="white" stroke-miterlimit="10" stroke-linecap="square" stroke-linejoin="round"/>
<path d="M479.4 284.1L482.7 291.8" stroke="#333333" stroke-miterlimit="10"/>
<path d="M486.2 278.5L491.9 295.3" stroke="#333333" stroke-miterlimit="10"/>
<path d="M495.3 275.1L501.4 294.3" stroke="#333333" stroke-miterlimit="10"/>
<path d="M507.6 279.2H491.3V288.5L507.6 295.1" fill="white"/>
<path d="M507.6 279.2H491.3V288.5L507.6 295.1" stroke="#333333" stroke-miterlimit="10"/>
<path d="M257.8 143.6L255.6 150.6" stroke="#333333" stroke-miterlimit="10"/>
<path d="M810.1 384.1C810.5 384.3 857.6 391.1 857.6 391.1" stroke="#333333" stroke-miterlimit="10"/>
<path d="M814.6 357.7L820.3 367.2" stroke="white" stroke-miterlimit="10"/>
<path d="M841.7 359L840.3 368.9" stroke="white" stroke-miterlimit="10"/>
<path d="M866.5 364.9L859.3 372.7" stroke="white" stroke-miterlimit="10"/>
<path d="M1087.2 209.8C1089.52 209.8 1091.4 207.92 1091.4 205.6C1091.4 203.28 1089.52 201.4 1087.2 201.4C1084.88 201.4 1083 203.28 1083 205.6C1083 207.92 1084.88 209.8 1087.2 209.8Z" fill="white" stroke="#333333" stroke-miterlimit="10"/>
<path d="M1085.8 208.2L1080.8 217.4L1083.2 218.7L1089.2 207.5" fill="white"/>
<path d="M1085.8 208.2L1080.8 217.4L1083.2 218.7L1089.2 207.5" stroke="#333333" stroke-miterlimit="10"/>
<path d="M1085.5 205.8C1085.89 205.8 1086.2 205.487 1086.2 205.1C1086.2 204.713 1085.89 204.4 1085.5 204.4C1085.11 204.4 1084.8 204.713 1084.8 205.1C1084.8 205.487 1085.11 205.8 1085.5 205.8Z" fill="white" stroke="#333333" stroke-miterlimit="10"/>
<path d="M1089.7 204L1090.1 205.4" stroke="#333333" stroke-miterlimit="10"/>
<path d="M420.2 374.3C419.4 374.3 419.1 374.3 418.7 374.3C418.8 373.8 418.8 373.3 418.8 372.8V367.2C418.8 366.7 418.8 366.2 418.7 365.7C419.2 365.7 419.4 365.7 420.2 365.7H422.9C424.6 365.7 425.5 366.5 425.5 367.9C425.5 368.5 425.3 369 424.9 369.4C424.7 369.6 424.5 369.7 424.1 369.9C424.6 370 424.9 370.1 425.2 370.4C425.6 370.8 425.9 371.3 425.9 372C425.9 373.5 424.9 374.4 423.1 374.4L420.2 374.3ZM422.6 369C423.1 369 423.5 368.7 423.5 368.2C423.5 367.7 423.2 367.4 422.6 367.4H420.8V369H422.6ZM420.8 372.6H422.7C423.3 372.6 423.7 372.2 423.7 371.6C423.7 371 423.3 370.7 422.7 370.7H420.8V372.6Z" fill="white"/>
<path d="M434.3 369.9C434.3 372.6 432.6 374.4 430.1 374.4C427.6 374.4 426 372.6 426 369.9C426 367.2 427.6 365.5 430.2 365.5C432.7 365.5 434.3 367.3 434.3 369.9ZM432.2 370C432.2 368.3 431.4 367.3 430.2 367.3C429 367.3 428.2 368.3 428.2 370C428.2 371.7 429 372.7 430.2 372.7C431.4 372.7 432.2 371.7 432.2 370Z" fill="white"/>
<path d="M437 373C436.7 373.4 436.5 373.8 436.2 374.3H433.5C434.1 373.6 434.3 373.4 434.6 372.9L436.9 369.7L435 367C434.7 366.5 434.4 366.1 434 365.7H436.7C436.9 366.2 437.2 366.6 437.5 367.1L438.3 368.3L439.1 367.1C439.5 366.5 439.7 366.1 439.9 365.8H442.5C442.1 366.3 441.9 366.6 441.5 367.1L439.6 369.8L441.9 373C442.2 373.5 442.5 373.8 442.9 374.4H440C439.8 374 439.6 373.7 439.3 373.1L438.2 371.4L437 373Z" fill="white"/>
<path d="M444.6 374.2C445.263 374.2 445.8 373.663 445.8 373C445.8 372.337 445.263 371.8 444.6 371.8C443.937 371.8 443.4 372.337 443.4 373C443.4 373.663 443.937 374.2 444.6 374.2Z" fill="white"/>
<path d="M415.9 364.7H414.5L409.6 369.5L411 371L415.9 366.1V364.7Z" fill="white"/>
<path d="M408.3 372.2L410.3 371.7L408.8 370.3L408.3 372.2Z" fill="white"/>
<path d="M413.9 370.1V370.3V373.2H407.3V366.6H410H410.3H410.5L412.5 364.7H410.3H410H405.3V375.2H415.9V370.3V368.1L413.9 370.1Z" fill="white"/>
<path d="M141 61.9C138.5 59.9 138.1 56.2 140.1 53.7C142.1 51.2 145.8 50.8 148.3 52.8" fill="white"/>
<path d="M141 61.9C138.5 59.9 138.1 56.2 140.1 53.7C142.1 51.2 145.8 50.8 148.3 52.8" stroke="#333333" stroke-miterlimit="10" stroke-linecap="square" stroke-linejoin="round"/>
<path d="M614.7 236.9C617.8 236.1 621 238 621.7 241.1C622.5 244.2 620.6 247.4 617.5 248.1" fill="white"/>
<path d="M614.7 236.9C617.8 236.1 621 238 621.7 241.1C622.5 244.2 620.6 247.4 617.5 248.1" stroke="#333333" stroke-miterlimit="10" stroke-linecap="square" stroke-linejoin="round"/>
<path d="M144.6 61.8C143.6 63.5 144.8 65.7 146.8 65.7C148.8 65.7 150 63.6 149 61.8C148.1 60.1 145.6 60.1 144.6 61.8Z" fill="white" stroke="#333333" stroke-miterlimit="10"/>
<path d="M218.8 175.9L226.4 175.2" stroke="white" stroke-miterlimit="10"/>
<path d="M218.8 189.3L226.4 189.2" stroke="white" stroke-miterlimit="10"/>
<path d="M218.7 203.2L226.6 203.7" stroke="white" stroke-miterlimit="10"/>
<path d="M218.1 216.6L226 218.5" stroke="white" stroke-miterlimit="10"/>
<path d="M218.8 161L226.4 159.6" stroke="white" stroke-miterlimit="10"/>
<path d="M201 133.9L207 132.7" stroke="white" stroke-miterlimit="10"/>
<path d="M201.4 144.3L207 143.6" stroke="white" stroke-miterlimit="10"/>
<path d="M156.9 102.2L158.1 108.9" stroke="white" stroke-miterlimit="10"/>
<path d="M152.3 102.7L153.5 109.3" stroke="white" stroke-miterlimit="10"/>
<path d="M161.9 110.1L149.8 111.4" stroke="white" stroke-miterlimit="10"/>
<path d="M460.9 157.8L471.3 189.7" stroke="#333333" stroke-miterlimit="10" stroke-linecap="square" stroke-linejoin="round"/>
<path d="M453.8 136.2L458.7 151.1" stroke="#333333" stroke-miterlimit="10" stroke-linecap="square" stroke-linejoin="round"/>
<path d="M438.3 198.3L426 202.3" stroke="#333333" stroke-miterlimit="10" stroke-linecap="square" stroke-linejoin="round"/>
<path d="M504.5 176.8L442.8 196.9" stroke="#333333" stroke-miterlimit="10" stroke-linecap="square" stroke-linejoin="round"/>
<path d="M513.3 173.9L508.6 175.4" stroke="#333333" stroke-miterlimit="10" stroke-linecap="square" stroke-linejoin="round"/>
<path d="M433.9 169.1L428 166.1" stroke="#333333" stroke-miterlimit="10" stroke-linecap="square" stroke-linejoin="round"/>
<path d="M481 193.1L438 171.2" stroke="#333333" stroke-miterlimit="10" stroke-linecap="square" stroke-linejoin="round"/>
<path d="M486.9 155.8L465.3 198.2" stroke="#333333" stroke-miterlimit="10" stroke-linecap="square" stroke-linejoin="round"/>
<path d="M493.1 143.6L489.3 151.1" stroke="#333333" stroke-miterlimit="10" stroke-linecap="square" stroke-linejoin="round"/>
<path d="M452.3 166.5L476.5 194.6" stroke="#333333" stroke-miterlimit="10" stroke-linecap="square" stroke-linejoin="round"/>
<path d="M438.2 150.1L449.5 163.2" stroke="#333333" stroke-miterlimit="10" stroke-linecap="square" stroke-linejoin="round"/>
<path d="M492.9 168.7L441.6 212.7" stroke="#333333" stroke-miterlimit="10" stroke-linecap="square" stroke-linejoin="round"/>
<path d="M507.5 156.1L496.3 165.7" stroke="#333333" stroke-miterlimit="10" stroke-linecap="square" stroke-linejoin="round"/>
<path d="M428.1 184.6L423.3 184.2" stroke="#333333" stroke-miterlimit="10" stroke-linecap="square" stroke-linejoin="round"/>
<path d="M500.2 190L432.6 184.9" stroke="#333333" stroke-miterlimit="10" stroke-linecap="square" stroke-linejoin="round"/>
<path d="M513.7 191L504.6 190.3" stroke="#333333" stroke-miterlimit="10" stroke-linecap="square" stroke-linejoin="round"/>
<path d="M472.8 159.3L469.7 200.7" stroke="#333333" stroke-miterlimit="10" stroke-linecap="square" stroke-linejoin="round"/>
<path d="M474.2 140.3L473.1 155.4" stroke="#333333" stroke-miterlimit="10" stroke-linecap="square" stroke-linejoin="round"/>
<path d="M471.8 220C487.927 220 501 206.927 501 190.8C501 174.673 487.927 161.6 471.8 161.6C455.673 161.6 442.6 174.673 442.6 190.8C442.6 206.927 455.673 220 471.8 220Z" fill="white"/>
<path d="M484.486 207.776L471.555 211.989L475.087 222.828L488.018 218.615L484.486 207.776Z" fill="#FF6666"/>
<path d="M471.5 209.1C482.159 209.1 490.8 200.459 490.8 189.8C490.8 179.141 482.159 170.5 471.5 170.5C460.841 170.5 452.2 179.141 452.2 189.8C452.2 200.459 460.841 209.1 471.5 209.1Z" fill="#FFC44D"/>
<path d="M467.7 192.2L470.7 201.4" stroke="#333333" stroke-miterlimit="10" stroke-linecap="square" stroke-linejoin="round"/>
<path d="M476.8 189.2L479.8 198.4" stroke="#333333" stroke-miterlimit="10" stroke-linecap="square" stroke-linejoin="round"/>
<path d="M469.6 182.4L475.3 199.9" stroke="#333333" stroke-miterlimit="10" stroke-linecap="square" stroke-linejoin="round"/>
<path d="M476 214.3L482.3 212.2" stroke="#333333" stroke-miterlimit="10" stroke-linecap="square" stroke-linejoin="round"/>
<path d="M477.1 218.2L483.4 216.1" stroke="#333333" stroke-miterlimit="10" stroke-linecap="square" stroke-linejoin="round"/>
</g>
<defs>
<clipPath id="clip0">
<rect width="1187" height="417" fill="white"/>
</clipPath>
</defs>
</svg>
